<svg width="800px" height="800px" viewBox="0 0 512 512" version="1.1" xml:space="preserve"
    xmlns="http://www.w3.org/2000/svg" xmlns:xlink="http://www.w3.org/1999/xlink" fill="#ffffff"
    stroke="#ffffff">

<g id="SVGRepo_bgCarrier" stroke-width="0"/>

<g id="SVGRepo_tracerCarrier" stroke-linecap="round" stroke-linejoin="round"/>

<g id="SVGRepo_iconCarrier"> <g id="_x34_94_x2C__atom_x2C__chemistry_x2C__molecule_x2C__laboratory"> <g> <path d="M70.82,265.49c11.18,0,20.03,9.02,20.03,19.939c0,0.25,0,0.511-0.02,0.761 c-0.14,2.59-0.99,5.149-1.84,7.31c0.04,0.02,0.09,0.03,0.13,0.05c-3.1,6.931-10.07,11.82-18.3,11.82 c-10.72,0-19.57-9.021-19.57-19.94c0-4.02,1.2-7.779,3.25-10.93l0.01,0.01c0.7-1.069,1.48-2.05,2.33-2.95 c0.57-0.59,1.17-1.149,1.79-1.659c0.32-0.261,0.63-0.511,0.96-0.74c0.65-0.48,1.33-0.9,2.03-1.29c0.28-0.16,0.57-0.311,0.87-0.45 c0.18-0.09,0.36-0.18,0.55-0.26c0.12-0.061,0.25-0.11,0.38-0.16c0.2-0.09,0.4-0.17,0.6-0.25c0.29-0.11,0.58-0.21,0.88-0.31 c0.35-0.12,0.7-0.23,1.06-0.32c0.32-0.08,0.65-0.16,0.98-0.23c0.23-0.05,0.47-0.09,0.7-0.13c0.15-0.029,0.3-0.05,0.46-0.069 c0.16-0.03,0.32-0.051,0.48-0.07c0.25-0.03,0.5-0.05,0.75-0.07c0.14-0.01,0.28-0.02,0.42-0.02 C70.1,265.5,70.46,265.49,70.82,265.49z" style="fill:#75aaff;"/> <path d="M54.95,295.305c0-4.02,1.2-7.779,3.25-10.93l0.01,0.01c0.7-1.069,1.48-2.05,2.33-2.95 c0.57-0.59,1.17-1.149,1.79-1.659c0.32-0.261,0.63-0.511,0.96-0.74c0.65-0.48,1.33-0.9,2.03-1.29c0.28-0.16,0.57-0.311,0.87-0.45 c0.18-0.09,0.36-0.18,0.55-0.26c0.12-0.061,0.25-0.11,0.38-0.16c0.2-0.09,0.4-0.17,0.6-0.25c0.29-0.11,0.58-0.21,0.88-0.31 c0.35-0.12,0.7-0.23,1.06-0.32c0.32-0.08,0.65-0.16,0.98-0.23c0.23-0.05,0.47-0.09,0.7-0.13c0.15-0.029,0.3-0.05,0.46-0.069 c0.16-0.03,0.32-0.051,0.48-0.07c0.25-0.03,0.5-0.05,0.75-0.07c0.14-0.01,0.28-0.02,0.42-0.02c0.35-0.03,0.71-0.04,1.07-0.04 c6.744,0,12.624,3.295,16.241,8.296c-0.896-10.107-9.372-18.171-19.941-18.171c-0.36,0-0.72,0.01-1.07,0.04 c-0.14,0-0.28,0.01-0.42,0.02c-0.25,0.021-0.5,0.04-0.75,0.07c-0.16,0.02-0.32,0.04-0.48,0.07c-0.16,0.02-0.31,0.04-0.46,0.069 c-0.23,0.04-0.47,0.08-0.7,0.13c-0.33,0.07-0.66,0.15-0.98,0.23c-0.36,0.09-0.71,0.2-1.06,0.32c-0.3,0.1-0.59,0.199-0.88,0.31 c-0.2,0.08-0.4,0.16-0.6,0.25c-0.13,0.05-0.26,0.1-0.38,0.16c-0.19,0.08-0.37,0.17-0.55,0.26c-0.3,0.14-0.59,0.29-0.87,0.45 c-0.7,0.39-1.38,0.81-2.03,1.29c-0.33,0.229-0.64,0.479-0.96,0.74c-0.62,0.51-1.22,1.069-1.79,1.659 c-0.85,0.9-1.63,1.881-2.33,2.95l-0.01-0.01c-2.05,3.15-3.25,6.91-3.25,10.93c0,4.352,1.422,8.389,3.792,11.687 C54.987,296.519,54.95,295.916,54.95,295.305z" style="fill:#648be8;"/> <path d="M283.25,450.62c3.41,3.25,5.59,7.84,5.59,12.82c0,9.489-7.92,17.56-17.229,17.56 c-7.75,0-14.03-5.06-16.311-11.87c-0.01-0.01-0.01-0.03-0.01-0.04c-0.41-1.649-0.81-3.29-0.9-4.939 c-0.02-0.23-0.02-0.471-0.02-0.71c0-9.5,7.45-17.57,17.24-17.57c0.6,0,1.189,0.03,1.779,0.1c3.681,0.41,7.061,2.07,9.73,4.53 C283.16,450.55,283.2,450.59,283.25,450.62z" style="fill:#75aaff;"/> <path d="M283.25,450.62c-0.05-0.03-0.09-0.07-0.13-0.12c-2.67-2.46-6.05-4.12-9.73-4.53 c-0.59-0.069-1.18-0.1-1.779-0.1c-7.187,0-13.1,4.356-15.743,10.428c2.707-1.838,5.971-2.928,9.555-2.928 c0.6,0,1.189,0.03,1.779,0.1c3.681,0.41,7.061,2.07,9.73,4.53c0.04,0.05,0.08,0.09,0.13,0.12c3.41,3.25,5.59,7.84,5.59,12.82 c0,2.476-0.549,4.849-1.512,7.013c4.6-3.197,7.699-8.577,7.699-14.513C288.84,458.46,286.66,453.87,283.25,450.62z" style="fill:#648be8;"/> <path d="M456.56,215.65c0,2.83-0.84,5.46-2.279,7.64c-0.021-0.01-0.03-0.03-0.05-0.04 c-0.591,0.95-1.28,1.81-2.07,2.56c-0.17,0.16-0.34,0.31-0.521,0.46c-0.17,0.14-0.34,0.28-0.51,0.41 c-0.17,0.13-0.35,0.26-0.53,0.39c-1.08,0.74-2.27,1.33-3.54,1.73c-0.489,0.16-1,0.29-1.51,0.38c-0.21,0.05-0.42,0.08-0.63,0.11 c-0.1,0.01-0.189,0.02-0.28,0.03c-0.199,0.03-0.399,0.05-0.6,0.06c-0.33,0.03-0.66,0.04-0.99,0.04c-7.46,0-13.51-6.17-13.51-13.77 c0-0.27,0.01-0.54,0.03-0.81c0.02-0.41,0.069-0.84,0.13-1.28c0.01-0.09,0.02-0.18,0.04-0.26c0.08-0.43,0.17-0.87,0.29-1.31 c1.569-5.82,6.81-10.1,13.02-10.1C450.5,201.89,456.56,208.06,456.56,215.65z" style="fill:#75aaff;"/> <path d="M442.466,210.555c6.288,0,11.57,4.402,13.069,10.336c0.656-1.615,1.024-3.384,1.024-5.242 c0-7.59-6.06-13.76-13.51-13.76c-6.21,0-11.45,4.28-13.02,10.1c-0.12,0.44-0.21,0.88-0.29,1.31c-0.021,0.08-0.03,0.17-0.04,0.26 c-0.061,0.44-0.11,0.87-0.13,1.28c-0.021,0.27-0.03,0.54-0.03,0.81c0,1.19,0.164,2.338,0.442,3.44 C432.002,214.086,436.829,210.555,442.466,210.555z" style="fill:#648be8;"/> <path d="M242.72,48.09c0,7.59-6.05,13.76-13.51,13.76c-0.2,0-0.39,0-0.59-0.02c-0.1,0-0.2-0.01-0.31-0.02 c-1.66-0.15-3.46-0.69-4.95-1.32c-4.53-2.22-7.66-6.94-7.66-12.4c0-7.6,6.06-13.77,13.51-13.77c6.99,0,12.74,5.42,13.44,12.35 C242.7,47.14,242.72,47.61,242.72,48.09z" style="fill:#75aaff;"/> <path d="M230.126,43.82c5.339,0,9.946,3.167,12.14,7.748c0.286-1.113,0.454-2.274,0.454-3.478 c0-0.48-0.02-0.95-0.07-1.42c-0.7-6.93-6.45-12.35-13.44-12.35c-7.45,0-13.51,6.17-13.51,13.77c0,2.161,0.497,4.202,1.37,6.021 C218.587,48.197,223.856,43.82,230.126,43.82z" style="fill:#648be8;"/> <path d="M255.85,221.6c15.4,0,28.09,12.93,28.09,28.31c0,15.7-12.69,28.62-28.09,28.62 c-15.1,0-27.79-12.92-27.79-28.62C228.06,234.53,240.75,221.6,255.85,221.6z" style="fill:#75aaff;"/> <path d="M233.53,262.91c0-15.38,12.69-28.31,27.791-28.31c9.056,0,17.171,4.474,22.323,11.285 c-1.979-13.545-13.759-24.285-27.793-24.285c-15.1,0-27.79,12.93-27.79,28.31c0,6.498,2.178,12.517,5.797,17.344 C233.642,265.836,233.53,264.385,233.53,262.91z" style="fill:#648be8;"/> <path d="M54.509,279.51c-1.228,0-2.417-0.453-3.336-1.276C41.246,269.686,36,259.866,36,249.83 c0-24.158,32.15-45.978,88.208-59.864c20.064-4.964,42.347-8.726,66.231-11.18c12.02-1.237,24.614-2.14,37.43-2.682 c9.339-0.381,18.724-0.575,27.901-0.575c9.383,0,18.897,0.197,28.276,0.584c12.585,0.527,25.065,1.413,37.098,2.631 c24.055,2.435,46.49,6.189,66.682,11.159c17.196,4.241,32.387,9.292,45.149,15.013c1.235,0.554,2.193,1.584,2.655,2.857 c0.462,1.273,0.388,2.678-0.205,3.896c-0.213,0.436-0.401,0.97-0.547,1.544c-0.107,0.398-0.167,0.704-0.223,1.001 c-0.506,2.715-3.116,4.506-5.831,4c-2.715-0.506-4.505-3.117-3.999-5.832c0.005-0.031,0.011-0.062,0.018-0.094 c-11.356-4.763-24.59-9.021-39.41-12.676c-19.736-4.858-41.706-8.532-65.297-10.919c-11.837-1.199-24.119-2.07-36.505-2.589 c-9.24-0.382-18.614-0.576-27.861-0.576c-9.042,0-18.29,0.19-27.486,0.566c-12.609,0.534-25,1.421-36.822,2.638 c-23.421,2.407-45.24,6.088-64.851,10.94C76.889,211.99,46,231.209,46,249.83c0,5.836,2.783,11.785,8.102,17.406 c0.453-0.43,0.902-0.828,1.353-1.198c0.418-0.34,0.809-0.65,1.219-0.939c0.751-0.551,1.575-1.074,2.516-1.598 c2.412-1.344,5.457-0.475,6.8,1.938c1.343,2.413,0.475,5.458-1.938,6.801c-0.585,0.326-1.073,0.634-1.491,0.942 c-0.038,0.028-0.077,0.057-0.116,0.084c-0.228,0.157-0.438,0.333-0.658,0.513c-0.436,0.358-0.897,0.786-1.352,1.257 c-0.62,0.657-1.22,1.417-1.742,2.214c-0.825,1.259-2.172,2.08-3.67,2.234C54.852,279.501,54.68,279.51,54.509,279.51z"/> <path d="M62.494,272.421c-1.834,0-3.6-1.013-4.476-2.765c-1.235-2.47-0.234-5.474,2.236-6.708 c0.275-0.138,0.552-0.272,0.843-0.396c2.544-1.073,5.476,0.121,6.548,2.664c1.073,2.544-0.12,5.477-2.663,6.551 c-0.089,0.037-0.172,0.082-0.256,0.124C64.009,272.251,63.246,272.421,62.494,272.421z"/> <path d="M63.423,272.001c-1.909,0-3.732-1.099-4.564-2.954c-1.131-2.519-0.005-5.478,2.514-6.608 c0.264-0.118,0.527-0.226,0.791-0.331c2.563-1.025,5.473,0.222,6.5,2.785c1.025,2.564-0.222,5.475-2.786,6.5 c-0.137,0.055-0.273,0.107-0.41,0.169C64.803,271.86,64.107,272.001,63.423,272.001z"/> <path d="M64.899,271.441c-2.077,0-4.017-1.304-4.729-3.378c-0.896-2.612,0.495-5.456,3.107-6.353 c0.486-0.167,0.972-0.317,1.472-0.442c2.676-0.662,5.393,0.961,6.062,3.641c0.669,2.679-0.961,5.394-3.64,6.063 c-0.22,0.055-0.434,0.125-0.648,0.198C65.985,271.354,65.438,271.441,64.899,271.441z"/> <path d="M66.935,270.891c-2.303,0-4.375-1.601-4.882-3.942c-0.584-2.699,1.129-5.361,3.829-5.945 c0.267-0.058,0.543-0.107,0.813-0.154c0.208-0.04,0.427-0.073,0.657-0.104c0.208-0.035,0.415-0.063,0.623-0.088 c0.298-0.036,0.592-0.062,0.886-0.086c0.02-0.001,0.104-0.008,0.124-0.01c0.256-0.018,0.511-0.031,0.766-0.031 c2.761,0,5,2.238,5,5c0,2.747-2.215,4.977-4.956,5l-0.115,0.008c-0.169,0.014-0.333,0.025-0.498,0.046l-0.161,0.021 c-0.108,0.021-0.206,0.036-0.315,0.049l-0.122,0.017c-0.035,0.007-0.148,0.026-0.184,0.032c-0.133,0.023-0.271,0.046-0.402,0.074 C67.642,270.854,67.286,270.891,66.935,270.891z"/> <path d="M255.77,324.13c-9.6,0-19.17-0.203-28.446-0.604c-12.462-0.525-24.891-1.417-36.934-2.651 c-23.798-2.427-46.027-6.162-66.066-11.1c-13.626-3.351-26.079-7.24-37.009-11.562c-0.189-0.069-0.371-0.147-0.539-0.229 c-2.33-1.151-3.39-3.895-2.439-6.313c0.592-1.505,1.391-3.738,1.5-5.75c0.004-0.114,0.013-0.306,0.013-0.49c0-2.762,2.239-5,5-5 s5,2.238,5,5c0,0.313-0.011,0.638-0.023,0.951c-0.079,1.458-0.312,2.85-0.623,4.146c9.472,3.517,20.048,6.719,31.51,9.537 c19.59,4.827,41.355,8.481,64.693,10.861c11.848,1.214,24.075,2.092,36.343,2.609c18.179,0.785,37.342,0.794,56.421-0.001 c12.315-0.533,24.435-1.4,36.013-2.579c23.583-2.385,45.488-6.045,65.109-10.88C435.83,287.65,466,268.867,466,249.83 c0-6.625-3.782-13.252-11.254-19.74c-1.966,1.191-4.565,0.898-6.212-0.838c-1.901-2.002-1.819-5.167,0.184-7.069 c0.466-0.442,0.893-0.972,1.267-1.574c1.364-2.193,4.174-2.986,6.482-1.832c0.308,0.154,0.607,0.346,0.883,0.565 C469.726,228.7,476,238.957,476,249.83c0,12.837-8.513,24.774-25.303,35.481c-14.992,9.562-36.782,18.024-63.014,24.474 c-20.072,4.946-42.444,8.688-66.49,11.119c-11.767,1.197-24.08,2.079-36.597,2.621C274.961,323.927,265.266,324.13,255.77,324.13z "/> <path d="M447.058,233.801c-2.139,0-4.118-1.384-4.778-3.536c-0.81-2.64,0.674-5.437,3.314-6.246 c0.764-0.234,1.481-0.585,2.135-1.043c0.06-0.042,0.12-0.083,0.182-0.122c0.112-0.094,0.228-0.183,0.347-0.267 c2.013-1.85,5.144-1.741,7.022,0.254c1.894,2.01,1.799,5.175-0.212,7.068c-0.283,0.267-0.579,0.513-0.881,0.733 c-0.265,0.216-0.543,0.417-0.833,0.602c-1.481,1.021-3.105,1.807-4.828,2.335C448.037,233.73,447.543,233.801,447.058,233.801z"/> <path d="M444.928,234.289c-2.446,0-4.59-1.795-4.949-4.286c-0.394-2.733,1.495-5.267,4.228-5.661l0.016-0.002l0.212-0.032 c2.683-0.636,5.362,1.027,6,3.715c0.638,2.687-1.043,5.386-3.729,6.023c-0.353,0.083-0.704,0.141-1.056,0.191 C445.406,234.271,445.166,234.289,444.928,234.289z"/> <path d="M444.036,234.38c-2.649,0-4.859-2.081-4.99-4.756c-0.135-2.758,1.992-5.103,4.751-5.238l0.092-0.009 c2.735-0.411,5.28,1.463,5.694,4.192c0.415,2.73-1.462,5.279-4.192,5.694c-0.367,0.056-0.737,0.093-1.107,0.111 C444.201,234.378,444.118,234.38,444.036,234.38z"/> <path d="M429.574,219.84c-0.08,0-0.161-0.002-0.242-0.006c-2.758-0.131-4.888-2.474-4.756-5.232 c0.024-0.509,0.077-1.041,0.171-1.723c0.376-2.735,2.889-4.653,5.635-4.271c2.735,0.376,4.648,2.899,4.271,5.635 c-0.039,0.288-0.076,0.568-0.089,0.836C434.437,217.755,432.227,219.84,429.574,219.84z"/> <path d="M283.246,455.62c-1.012,0-2.031-0.306-2.915-0.94c-2.242-1.612-2.753-4.736-1.141-6.979 c10.17-14.142,19.137-36.873,25.933-65.736c4.713-19.972,8.275-42.349,10.59-66.512c1.158-12.004,1.996-24.349,2.491-36.693 c0.383-9.589,0.576-19.323,0.576-28.93c0-9.476-0.193-19.081-0.576-28.548c-0.513-12.646-1.367-25.119-2.541-37.073 c-2.336-23.893-5.911-46.092-10.628-65.985C293.031,67.505,274.153,36,255.77,36c-3.492,0-6.802,1.001-10.184,3.11 c1.109,2.114,1.81,4.523,2.043,7.109c0.249,2.75-1.778,5.182-4.528,5.431c-2.746,0.261-5.181-1.778-5.431-4.528 c-0.198-2.189-1.061-4.078-2.367-5.182c-1.123-0.948-1.771-2.342-1.773-3.812s0.643-2.866,1.763-3.818 c6.581-5.591,13.279-8.31,20.478-8.31c24.32,0,45.272,31.934,58.996,89.918c4.82,20.329,8.471,42.978,10.851,67.316 c1.191,12.142,2.06,24.807,2.58,37.644c0.388,9.603,0.584,19.343,0.584,28.953c0,9.739-0.196,19.606-0.584,29.329 c-0.503,12.532-1.354,25.064-2.529,37.25c-2.357,24.611-5.994,47.44-10.811,67.85c-7.093,30.126-16.619,54.084-27.547,69.28 C286.333,454.897,284.8,455.62,283.246,455.62z"/> <path d="M255.302,474.13c-0.043,0-0.085-0.001-0.128-0.002c-23.898-0.604-44.584-32.509-58.248-89.839 c-4.896-20.548-8.598-43.393-11.002-67.9c-1.204-12.321-2.075-25.02-2.59-37.746c-0.388-9.551-0.584-19.245-0.584-28.813 c0-9.597,0.193-19.161,0.574-28.426c0.532-13.039,1.424-25.873,2.651-38.142c2.416-24.313,6.118-46.986,11.002-67.386 c5.691-23.771,12.708-43.391,20.854-58.312c1.3-2.384,4.265-3.293,6.679-2.048c0.248,0.127,0.525,0.254,0.809,0.375 c1.181,0.499,2.472,0.852,3.44,0.939c0.008,0.002-0.067,0-0.14,0c2.761,0,5,2.239,5,5s-2.239,5-5,5 c-0.234,0-0.469-0.014-0.722-0.037c-1.169-0.106-2.294-0.334-3.297-0.603c-6.816,13.563-12.97,31.428-17.898,52.014 c-4.779,19.961-8.405,42.184-10.777,66.05c-1.208,12.078-2.086,24.714-2.61,37.559c-0.375,9.131-0.565,18.556-0.565,28.017 c0,9.433,0.194,18.99,0.576,28.407c0.506,12.538,1.364,25.046,2.55,37.177c2.361,24.056,5.987,46.449,10.778,66.557 c11.969,50.221,30.658,81.703,48.772,82.161c2.76,0.069,4.942,2.363,4.872,5.124C260.229,471.974,258.005,474.13,255.302,474.13z"/> <path d="M255.286,474.091c-2.243,0-4.283-1.52-4.848-3.794c-0.411-1.653-0.922-3.71-1.041-5.875 c-0.15-2.757,1.963-5.114,4.721-5.264c2.757-0.17,5.114,1.963,5.265,4.721c0.066,1.217,0.419,2.634,0.76,4.004 c0.666,2.681-0.966,5.393-3.646,6.06C256.092,474.043,255.686,474.091,255.286,474.091z"/> <path d="M283.12,455.5c-1.279,0-2.56-0.488-3.535-1.465c-1.7-1.699-4.146-2.827-6.71-3.092c-2.747-0.284-4.743-2.741-4.459-5.488 c0.285-2.746,2.74-4.731,5.488-4.459c4.879,0.505,9.407,2.624,12.751,5.969c1.953,1.952,1.953,5.118,0,7.07 C285.68,455.012,284.399,455.5,283.12,455.5z"/> <path d="M125.439,417.654c-10.737,0-19.188-3.063-25.117-9.102c-8.891-9.062-11.14-23.645-6.687-43.346 c3.982-17.615,13.524-39.351,27.594-62.855c10.725-17.921,23.849-36.595,39.009-55.5c7.727-9.632,15.926-19.253,24.372-28.595 c6.43-7.121,13.025-14.127,19.603-20.821c6.686-6.814,13.566-13.539,20.449-19.985c9.159-8.598,18.597-16.951,28.048-24.822 c18.564-15.46,36.918-28.853,54.553-39.806c31.971-19.85,59.381-30.342,79.268-30.342c10.761,0,19.222,3.061,25.147,9.097 c17.026,17.354,9.654,54.91-20.757,105.75c-10.734,17.965-23.909,36.732-39.157,55.778c-7.841,9.791-16.202,19.616-24.851,29.204 c-6.206,6.89-12.638,13.749-19.115,20.385c-6.511,6.599-13.233,13.149-20,19.486c-9.403,8.802-19.053,17.322-28.682,25.325 c-18.645,15.501-37.044,28.916-54.688,39.873C172.544,407.185,145.23,417.654,125.439,417.654z M386.53,92.48 c-17.764,0-44.041,10.242-73.992,28.838c-17.242,10.709-35.219,23.829-53.428,38.995c-9.3,7.746-18.588,15.966-27.608,24.433 c-6.784,6.354-13.563,12.979-20.153,19.696c-6.481,6.597-12.98,13.5-19.318,20.519c-8.316,9.2-16.387,18.669-23.99,28.148 c-14.876,18.551-27.738,36.847-38.23,54.379c-26.795,44.762-35.359,80.804-22.352,94.061c3.978,4.052,10.027,6.106,17.98,6.106 c17.668,0,43.846-10.218,73.712-28.771c17.256-10.715,35.28-23.859,53.572-39.067c9.479-7.879,18.98-16.269,28.24-24.936 c6.67-6.247,13.297-12.704,19.697-19.191c6.366-6.521,12.706-13.281,18.825-20.075c8.521-9.445,16.753-19.121,24.473-28.759 c14.964-18.691,27.877-37.081,38.38-54.659c27.049-45.219,35.349-80.214,22.203-93.614C400.566,94.533,394.507,92.48,386.53,92.48 z"/> <path d="M386.527,417.651c-19.871,0-47.249-10.475-79.174-30.293c-17.65-10.95-36.032-24.36-54.634-39.856 c-9.576-7.959-19.202-16.482-28.606-25.33c-6.576-6.168-13.274-12.72-19.901-19.468c-6.858-7.032-13.45-14.068-19.604-20.924 c-8.423-9.347-16.625-18.997-24.373-28.676c-15.265-19.072-28.427-37.819-39.119-55.721 c-30.442-50.869-37.829-88.446-20.797-105.805c5.927-6.037,14.374-9.097,25.106-9.097c19.804,0,47.14,10.481,79.052,30.312 c17.607,10.936,35.986,24.337,54.627,39.832c9.379,7.795,18.849,16.149,28.146,24.831c6.911,6.453,13.816,13.173,20.526,19.972 c6.675,6.806,13.108,13.632,19.132,20.3c8.597,9.491,16.959,19.291,24.85,29.123c15.189,18.939,28.317,37.616,39.021,55.513 c14.068,23.501,23.608,45.234,27.589,62.85c4.45,19.696,2.199,34.277-6.69,43.339C405.751,414.59,397.289,417.651,386.527,417.651 z M125.427,92.481c-7.949,0-13.995,2.053-17.969,6.102c-13.15,13.404-4.836,48.421,22.243,93.669 c10.461,17.516,23.361,35.886,38.343,54.603c7.626,9.527,15.701,19.028,24.001,28.237c6.068,6.762,12.564,13.695,19.315,20.616 c6.52,6.639,13.119,13.095,19.601,19.175c9.261,8.713,18.731,17.1,28.155,24.931c18.251,15.204,36.253,28.34,53.511,39.047 c29.908,18.566,56.152,28.79,73.901,28.79c7.978,0,14.038-2.054,18.015-6.104c13.009-13.258,4.448-49.296-22.342-94.049 c-10.472-17.508-23.337-35.807-38.24-54.39c-7.766-9.676-15.997-19.323-24.466-28.672c-5.938-6.572-12.275-13.298-18.845-19.996 c-6.604-6.692-13.411-13.316-20.223-19.677c-9.156-8.55-18.48-16.776-27.712-24.449c-18.289-15.202-36.293-28.333-53.513-39.028 C169.308,102.711,143.108,92.481,125.427,92.481z"/> <path d="M229.21,66.85c-0.275,0-0.541-0.004-0.81-0.022c-0.157-0.003-0.36-0.014-0.597-0.041c-2.338-0.171-4.58-0.782-6.667-1.819 c-6.33-3.103-10.436-9.732-10.436-16.878c0-10.35,8.303-18.77,18.51-18.77c9.528,0,17.445,7.243,18.415,16.848 c0.063,0.591,0.096,1.23,0.096,1.922C247.72,58.434,239.417,66.85,229.21,66.85z M228.805,56.834 c0.108,0.004,0.219,0.011,0.313,0.021l0.091-0.005c4.692,0,8.51-3.93,8.51-8.76c0-0.333-0.014-0.624-0.042-0.888 c-0.455-4.506-4.094-7.882-8.468-7.882c-4.692,0-8.51,3.934-8.51,8.77c0,3.358,1.908,6.463,4.86,7.911 c0.968,0.48,1.99,0.752,3.061,0.819C228.683,56.824,228.744,56.829,228.805,56.834z"/> <path d="M443.05,234.42c-10.206,0-18.51-8.42-18.51-18.77c0-0.371,0.013-0.741,0.039-1.111c0.029-0.586,0.084-1.132,0.166-1.66 c0.016-0.128,0.039-0.298,0.078-0.494c0.092-0.559,0.221-1.129,0.392-1.741c2.179-8.08,9.518-13.754,17.835-13.754 c10.206,0,18.51,8.416,18.51,18.76c0,3.722-1.074,7.317-3.106,10.395c-0.793,1.229-1.777,2.398-2.896,3.435 c-0.214,0.202-0.461,0.42-0.725,0.638c-0.227,0.188-0.443,0.364-0.658,0.529c-0.216,0.165-0.435,0.324-0.655,0.482 c-0.03,0.022-0.062,0.043-0.093,0.065c-1.51,1.035-3.146,1.834-4.865,2.375c-0.667,0.218-1.404,0.404-2.139,0.534 c-0.22,0.042-0.504,0.094-0.788,0.135c-0.075,0.011-0.15,0.02-0.226,0.027l-0.14,0.015c-0.291,0.041-0.583,0.07-0.875,0.087 C443.945,234.406,443.498,234.42,443.05,234.42z M434.657,214.205c-0.008,0.065-0.018,0.132-0.025,0.181 c-0.032,0.193-0.055,0.422-0.066,0.681c-0.003,0.051-0.006,0.101-0.01,0.151c-0.011,0.144-0.016,0.288-0.016,0.432 c0,4.836,3.817,8.77,8.51,8.77c0.178,0,0.355-0.003,0.533-0.019c0.071-0.007,0.143-0.012,0.214-0.015 c0.071-0.011,0.235-0.029,0.309-0.037l0.173-0.019c0.112-0.018,0.224-0.04,0.335-0.062c0.333-0.059,0.618-0.131,0.891-0.221 c0.813-0.256,1.545-0.612,2.228-1.074c0.124-0.089,0.246-0.177,0.362-0.266c0.117-0.09,0.24-0.192,0.365-0.295 c0.086-0.072,0.179-0.154,0.271-0.241c0.539-0.499,0.982-1.025,1.35-1.593c0.978-1.481,1.479-3.171,1.479-4.928 c0-4.83-3.817-8.76-8.51-8.76c-3.807,0-7.176,2.632-8.192,6.402c-0.091,0.327-0.143,0.558-0.176,0.77 C434.675,214.109,434.666,214.157,434.657,214.205z"/> <path d="M271.61,486c-9.531,0-17.991-6.142-21.052-15.282l0.002-0.001c-0.014-0.042-0.028-0.085-0.042-0.128 c-0.661-1.988-1.038-4.059-1.122-6.157c-0.022-0.324-0.027-0.658-0.027-0.991c0-12.445,9.977-22.57,22.24-22.57 c0.824,0,1.597,0.044,2.363,0.134c4.618,0.515,8.963,2.528,12.534,5.819c0.024,0.021,0.048,0.044,0.071,0.066 c0.041,0.036,0.081,0.073,0.12,0.111c4.538,4.324,7.141,10.316,7.141,16.439C293.84,475.669,283.66,486,271.61,486z M260.082,467.663c1.751,5.069,6.263,8.337,11.528,8.337c6.515,0,12.229-5.869,12.229-12.56c0-3.338-1.418-6.63-3.897-9.063 c-0.117-0.101-0.23-0.207-0.34-0.317c-1.968-1.769-4.304-2.847-6.767-3.12c-0.404-0.048-0.796-0.069-1.226-0.069 c-6.749,0-12.24,5.639-12.24,12.57c0,0.1-0.003,0.2,0.003,0.297c0.007,0.086,0.011,0.151,0.014,0.237 c0.042,1.199,0.258,2.383,0.641,3.516C260.047,467.548,260.064,467.605,260.082,467.663z"/> <path d="M70.82,310.37c-13.548,0-24.57-11.188-24.57-24.94c0-4.853,1.404-9.575,4.059-13.656c0.833-1.299,1.819-2.541,2.914-3.667 c0.692-0.738,1.435-1.427,2.208-2.05c0.376-0.322,0.785-0.638,1.246-0.961c0.792-0.581,1.636-1.117,2.51-1.594 c0.364-0.206,0.739-0.401,1.127-0.584c0.216-0.107,0.433-0.212,0.658-0.311c0.172-0.081,0.351-0.155,0.531-0.227 c0.22-0.096,0.44-0.186,0.66-0.273c0.436-0.166,0.792-0.289,1.161-0.412c0.399-0.137,0.844-0.268,1.303-0.395 c0.04-0.011,0.079-0.021,0.119-0.031c0.376-0.094,0.765-0.188,1.153-0.271c0.25-0.054,0.527-0.104,0.797-0.15 c0.2-0.038,0.423-0.071,0.64-0.101c0.213-0.036,0.426-0.065,0.64-0.091c0.298-0.036,0.592-0.062,0.886-0.086 c0.02-0.001,0.104-0.008,0.123-0.01c0.173-0.012,0.346-0.022,0.519-0.027c0.433-0.031,0.875-0.044,1.317-0.044 c13.802,0,25.03,11.188,25.03,24.939c0,0.338-0.004,0.688-0.026,1.029c-0.122,3.172-0.843,6.247-2.143,9.141 C89.668,304.569,80.694,310.37,70.82,310.37z M65.291,271.625c-0.101,0.051-0.204,0.099-0.308,0.143 c-0.089,0.037-0.172,0.082-0.256,0.124c-0.042,0.021-0.085,0.042-0.128,0.063c-0.17,0.079-0.335,0.164-0.495,0.255 c-0.033,0.02-0.066,0.038-0.1,0.056c-0.506,0.275-0.992,0.583-1.444,0.917c-0.038,0.028-0.077,0.057-0.116,0.084 c-0.181,0.125-0.358,0.255-0.527,0.402c-0.056,0.049-0.113,0.097-0.171,0.143c-0.435,0.347-0.856,0.737-1.25,1.16 c-0.026,0.028-0.053,0.056-0.08,0.083c-0.639,0.653-1.213,1.376-1.708,2.147c-1.613,2.48-2.458,5.316-2.458,8.229 c0,8.099,6.672,14.94,14.57,14.94c5.937,0,11.328-3.479,13.736-8.862c0.783-1.741,1.211-3.586,1.277-5.49 c0.002-0.075,0.007-0.15,0.013-0.227c0.008-0.117,0.004-0.241,0.004-0.361c0-8.237-6.743-14.939-15.03-14.939 c-0.215,0-0.43,0.003-0.639,0.021c-0.143,0.013-0.287,0.019-0.431,0.019l-0.071,0.007c-0.168,0.015-0.333,0.026-0.498,0.047 l-0.161,0.021c-0.094,0.019-0.179,0.031-0.274,0.044l-0.178,0.024c-0.035,0.007-0.132,0.023-0.167,0.029 c-0.133,0.023-0.271,0.046-0.403,0.074c-0.267,0.057-0.519,0.118-0.764,0.179c-0.241,0.067-0.477,0.134-0.712,0.215 c-0.277,0.092-0.501,0.168-0.725,0.253c-0.058,0.024-0.194,0.077-0.331,0.139c-0.084,0.038-0.17,0.074-0.257,0.107 C65.169,271.677,65.241,271.649,65.291,271.625z"/> <path d="M255.85,283.53c-18.081,0-32.79-15.082-32.79-33.62c0-18.056,15.016-33.31,32.79-33.31c18.246,0,33.09,14.943,33.09,33.31 C288.94,268.448,274.096,283.53,255.85,283.53z M255.85,226.6c-12.354,0-22.79,10.675-22.79,23.31 c0,12.804,10.437,23.62,22.79,23.62c12.732,0,23.09-10.596,23.09-23.62C278.94,237.275,268.366,226.6,255.85,226.6z"/> </g> </g> <g id="Layer_1"/> </g>

</svg>