<svg xmlns="http://www.w3.org/2000/svg" version="1.1" xmlns:xlink="http://www.w3.org/1999/xlink"
    xmlns:svgjs="http://svgjs.dev/svgjs" viewBox="0 0 800 800">
    <defs>
        <linearGradient x1="50%" y1="0%" x2="50%" y2="100%" id="ssscribble-grad">
            <stop stop-color="hsl(162, 100%, 58%)" stop-opacity="1" offset="0%"></stop>
            <stop stop-color="hsl(270, 73%, 53%)" stop-opacity="1" offset="100%"></stop>
        </linearGradient>
    </defs>
    <g fill="none" stroke-width="1.5" stroke="url(#ssscribble-grad)" stroke-linecap="round">
        <path
            d="M914.01 352.39C1053.72 393.49 994.81 404.89 835.16 393.38 722.86 397.38 632.48 413.8 574.85 454.5 553.38 522.92 563.1 622.03 592.76 744.75 639.59 865.78 685.87 968.12 722.58 1021.55 755.02 1010.69 770.94 933.8 771.12 812.83 764.31 701.03 745.89 638.22 719.87 661.32 691.5 770.33 659.85 924.41 626.99 1055.78 594.13 1102.78 561.61 1042.54 528.01 908.38 492.06 756.58 450.7 647.41 400.56 613.92 343.44 660.4 273.4 756.65 190.31 860.34 102.95 945.43 9.5 978.77 -80.39 958.03 -153.12 891.6 -201.8 795.6 -214.55 691.65 -191.13 584.35 -130.22 492.24 -42.01 419.13 46.91 356.88 121.47 309.68 158.29 271.8 140.17 238 69.94 206.09 -37.98 173.23 -156.33 140.37 -247.51 108.11 -289.16 79.94 -276.31 55.84 -210.4 43.26 -110.33 48.56 4.61 64.71 111.46 102.71 194.13 159.36 255.03 237.08 207.83 226.4 153.21 70.96 116.18 -66.93 91.97 -192.67 82.36 -263.24 77.72 -253.85 86.14 -163.41 104.95 -24.3 125.85 97.19 153.5 150.79 186.36 103.82 219.22 -27.53 255.73 -174.95 296.81 -271.31 339.97 -281.75 391.33 -200.25 452.91 -64.36 519.47 80.69 597.8 187.06 685.48 232.14 771.69 212.95 856.97 149.58 930.33 71.62 980.55 -8.03 1000.93 -59.96 983.54 -77.75 935.09 -67.81 857.7 -30.12 766.85 22.81 690.86 88.28 643.66 154.03 643.49 212.1 697.82 271.84 795.66 319.52 914.01 352.39Q914.01 352.39 914.01 352.39"
            opacity="0.12"></path>
        <path
            d="M880.01 217.39C981.25 247.9 1045.25 269.22 1059.88 284.18 1026.52 302.34 951.23 320.66 852 346.23 744.75 384.53 648.05 440.44 573.96 518.79 527.24 611.66 508.97 720.18 512.98 830.71 537.57 920.16 569.93 975.65 601.26 978.25 635.59 928.95 659.79 833.87 671.57 719.84 680.11 632.76 676.57 600.17 662.47 644.35 646.81 757.04 623.23 901.42 592.72 1021.78 562.21 1068.98 526.2 1022.79 484.31 907.03 440.87 764.38 388.9 644.85 327.48 582.4 262.82 589.25 188.37 652.08 107.01 741.33 28.65 836.75 -47.5 903.85 -112.08 930.04 -156.09 917.45 -173.99 867.6 -159.05 795.52 -116.73 706.65 -47.4 617.39 37.47 537.1 114.34 458.78 172.26 393.97 193.84 342.39 167.44 293.12 97.25 253.59 -3.98 223.07 -114.24 192.56 -202.43 172.5 -249.72 164.23 -251.17 158.25 -204.59 167.55 -123 192.99 -20.67 220.4 83.96 259.41 175.5 301.26 246.86 326.31 291.47 332.37 311.55 304.97 308.51 238.79 291.61 135.53 269.59 8.34 227.9 -157.78 186.88 -140.97 195.65 40.97 206.4 144.96 227.19 184.99 257.7 137.82 288.22 17.48 327 -120.72 373.8 -221.66 421.64 -254.07 479.04 -204.13 545.49 -94.69 612.81 41.69 687.17 164.14 763.84 245.22 832.88 274.4 893.59 255.11 936.62 205.66 956.54 135.13 948.1 70.41 908.52 24.57 848.75 -6.75 771.47 -12.42 691.52 2.15 632.29 29.45 603.08 66.64 616.31 106.02 675.37 148.61 769.75 186.87 880.01 217.39Q880.01 217.39 880.01 217.39"
            opacity="0.47"></path>
        <path
            d="M846.01 173.85C940.37 202.02 1003.84 231.13 1026.05 263.06 1007.34 297.91 949.95 340.85 866.79 395.75 769.73 458.48 673.88 536.51 591.03 627.89 526.06 719.28 483.98 810.34 462.84 886.41 461.57 932.34 472.76 939.74 489.27 900.8 513.51 827.81 534.14 730 547.14 633.76 560.47 575 563.7 570.55 556.22 631.37 548.16 744.53 530.1 878.28 501.93 987.78 473.77 1034.61 436.82 1001.24 391.76 904.1 346.13 774.49 291.66 652.09 229.52 568.58 167.7 539.74 100.69 564.79 33.04 626.41 -26.87 711.47 -78.51 790.41 -114.14 846.38 -129.93 878.32 -121.24 876.48 -85.59 847.57 -32.08 797.46 38.5 734.87 114.92 670.02 177.44 599.83 218.79 536.37 226.63 483.62 193.55 430.86 124.37 389.71 30.01 361.53 -72.04 333.37 -156.45 319.52 -207.63 319.15 -221.24 318.78 -192.71 331 -130.4 352.38 -44.47 368.42 51.39 384.63 143.63 391.33 225.92 376.84 289.44 338.25 332.64 269.41 356.39 176.52 364.21 64.18 362.25 -50.2 349.68 -141.15 336.3 -191.47 327.08 -183.29 315.47 -120.43 312.13 -14.07 318.82 104.66 325.5 190.94 342.61 218.62 370.78 171.82 398.94 62.33 436.83 -65.71 483.27 -168.01 529.7 -217.98 584.29 -197.51 644.7 -118.12 702.74 -1.23 762.51 121.83 818.48 224.15 880.17 305.43 888.3 244.95 820.27 171.66 757.36 123.69 686.75 92.05 621.46 78.13 579.8 72.04 567.3 80.33 591.78 98.6 653.83 119.8 743.95 145.68 846.01 173.85Q846.01 173.85 846.01 173.85"
            opacity="0.29"></path>
        <path
            d="M812.01 243.58C899.29 269.4 961.32 304 989.45 347.48 983.62 392.39 943.36 448.32 877.47 515.06 794.47 583.04 705.76 659.07 621.85 737.06 546.94 804.66 488.03 859.96 446.21 891.44 420.53 893.83 408.56 862.12 405.49 797.11 411.95 716.74 420.09 629.83 425.63 558.85 433.95 529.17 435.77 549.22 429.11 621.97 422.75 732.62 407.07 854.97 381.25 953.78 355.43 999.68 320.7 977.79 278.36 898.97 236.33 785.35 187.54 666.92 134.47 571.09 84.19 513.84 33.53 502.41 -12.72 529.52 -49.43 588.53 -74.53 658.2 -82.7 722.31 -74.71 779.01 -46.42 812.76 1.59 823 58.63 815.85 124.17 790.81 188.25 755.32 235.21 711.36 260.78 665.81 256.64 624.16 218.55 580.84 151.29 545.07 64.01 519.25 -29.75 493.43 -109.61 478.78 -163.01 473.4 -186.48 466.36 -174.12 464.94 -130.81 464.16 -63.51 454.91 18.48 437.43 104.11 404.79 188.29 354.77 261.81 283.95 320.91 193.42 366.28 95.47 396.95 -4.81 416.21 -90.7 424.92 -144.72 428.47 -156.45 431.27 -118.13 429.95 -41.24 432.55 62.48 441.66 166.14 450.02 235.01 466.56 251.68 492.38 205.81 518.2 107.01 552.07 -10.1 592.41 -110.79 631.99 -173.6 676.36 -178.97 722.43 -130.37 764.38 -40.47 803.34 69.59 834.43 176.85 854.96 268.75 861.36 331.07 849.83 362.53 824.57 364.88 781.66 346.65 724.37 318.85 665.62 280.65 606.78 247.14 558.4 223.91 534.02 201.91 536.35 192.94 569.78 196.73 633.15 201.95 718.24 217.76 812.01 243.58Q812.01 243.58 812.01 243.58"
            opacity="0.59"></path>
        <path
            d="M778.05 391.66C858.06 415.13 917.75 449.54 950.13 493.49 955.15 537.22 930.59 589.57 882.1 647.44 815.61 701.47 738.99 755.15 660.88 801.56 584.54 833.75 517.26 848.19 461.96 838.37 417.59 807.54 385.43 752.57 363.09 679.39 345.3 573.64 328.18 515.91 315.07 615.65 305.55 721.1 289.57 831.47 266.1 919.79 242.62 964.19 212.78 952.34 178.02 891.03 144.09 795.34 106.96 686.69 69.42 587.28 20.61 490.21 -31.7 508.82 -18.86 583.42 5.67 641.69 45.11 690.17 97.01 723.74 150.69 748.33 206.25 756.35 255.54 750.85 286.83 738.05 298.03 717.35 283.95 693.06 242.51 666.68 178.06 640.71 98.05 617.24 12.64 593.77 -61.98 573.9 -115.97 556.02 -146.9 536.05 -148.36 514.04 -122.76 486.17 -74.82 450.99 -10.01 404.32 63.24 343.55 141.13 273.8 215.51 191.63 281.63 102.59 340.27 19.59 387.6 -52.96 424.39 -102.07 452.88 -118.98 474.19 -98.24 491.3 -39.27 504.11 42.92 516.74 138.21 531.59 224.85 545.36 277.1 563.48 284.19 586.95 239.79 610.42 151.47 638.14 45.86 668.62 -50.52 698.04 -121.35 728.11 -147.71 755.98 -127.97 779.55 -68.66 796.9 18.27 804.59 115.52 803.98 213.14 790.35 295.94 762.48 357.54 727.13 398.12 680.58 417.38 627.12 421.36 578.3 411.13 534.54 396.1 503.8 382.75 495.39 365.55 510.21 355.9 550.19 356.44 613.23 356.75 692.61 368.18 778.01 391.65Q778.05 391.66 778.05 391.66"
            opacity="0.94"></path>
        <path
            d="M743.65 543.8C816.29 564.92 872.89 593.39 908.01 627.37 921.82 660.09 911.13 695.72 879.28 730.43 830.36 759.42 769.16 781.69 702.26 792.11 632.04 790.47 564.93 771.82 504.56 734.51 449.75 687 404.01 626.91 366.99 561.96 336.38 507.9 312.12 468.59 292.1 455.11 275.62 475.59 260.24 529.35 244.11 611.7 228.91 709.62 211.14 807.62 190.02 885.68 168.89 928.03 145.42 924.68 120.77 879.63 97.06 802.72 74.01 708.33 53.89 613.28 37.3 528.51 26.76 465.9 24.82 429.46 29.28 419.64 44.69 432.09 71.82 459 104.5 499.45 146.56 541.19 194.79 577.71 239.68 613.86 281.94 639.14 315.38 652.72 331.74 662.69 330.41 662.43 308.45 653.7 265.18 643.53 204.29 627.42 131.65 606.3 54.68 585.17 -14.03 560.04 -66.99 530.37 -102.84 499.26 -115.28 461.09 -105.13 414.52 -75.67 364.33 -29.36 304.26 27.84 235.56 93.16 166.48 160.33 94.41 224.63 26.27 286.89 -28.32 342.1 -65.83 389.25 -78.02 431.36 -63.58 466.35 -19.92 495.53 49.35 521.36 128.91 544.04 211.28 565.1 280.04 585.18 316.95 605.5 316.04 626.62 273.71 647.75 195.65 668.68 101.94 688.44 12.17 715.09 -82.91 741.08 -50.7 731.42 54.47 716.83 141.42 691.95 226.56 657.38 301.75 620.77 366.76 578.65 415.73 535.32 449.93 486.43 478.33 476.33 495.51 532.57 504.03 593.69 509.89 666.68 522.67 743.65 543.8Q743.65 543.8 743.65 543.8"
            opacity="0.48"></path>
        <path
            d="M710.04 624.08C775.05 642.86 827.61 662.47 863.65 681.6 883.72 699.39 884.28 714.12 867.12 723.11 835.12 727.45 790.66 722.37 738.39 705.63 680 682.27 620.39 646.7 563.13 600.57 507.01 553.88 456.32 504.5 412.05 459.55 371.26 430.21 336.42 418.21 306.83 429.72 279.69 467.45 255.95 529.33 234.64 609.86 214.08 698.33 194.55 783.76 175.77 851.82 156.99 891.54 139.86 895.08 125 864.6 110.9 806.32 100.48 729.08 95.08 644.85 92.12 561.32 96.04 488.98 107.89 433.5 123.22 396.08 146.95 377.75 178.46 375.08 211.11 387.21 248.45 407.22 287.29 429.58 320.01 457.22 347.63 480.87 365.86 497.61 369.27 514.53 358.02 522.88 330.71 522.07 287.42 520.87 231.05 511 166.04 492.23 97.56 473.45 35.22 446.64 -15.44 412.44 -54.04 377.83 -74.78 335.31 -77.52 285.86 -64.72 236.58 -36.64 182 2.84 125.42 51.64 74.13 105.63 27.15 160.82 -9.58 217.84 -31.52 271.88 -35.46 321.01 -17.59 368.32 18.34 409.98 73.83 445.89 143.6 479.92 214.06 509.36 280.62 534.69 331.65 559.37 354.89 581.1 347.54 599.88 307.82 618.66 239.76 633.6 158.13 644.33 76.91 656.78 -21.96 648.92 -54.86 625.18 8.45 605 72.95 577.91 144.59 545.5 215.9 514.93 286.64 483.2 349.17 453.95 401.47 434 447.15 422.76 483.15 423.72 511.35 440.22 534.91 471.64 554.33 517.48 571.96 575.39 588.24 641.52 605.29 710 624.07Q710.04 624.08 710.04 624.08"
            opacity="0.47"></path>
        <path
            d="M676 591.96C783.93 624.82 843.16 637.1 845.33 622.66 800.65 599.73 719.15 542.87 626.4 464.42 526.7 407.38 439.12 381.2 371.33 421.62 308.1 532.4 260.02 686.45 227.16 817.81 194.3 864.78 179.77 803.66 186.05 676.81 196.89 529.48 233.19 412.68 289.81 346.62 362.82 330.77 344.21 365.39 200 331.82 81.65 298.96 -4.36 237.76 -39.53 160.6 -29.06 93.02 26.46 32.78 104.36 10.04 197.47 33.02 286.34 114.98 358.47 238.21 428.68 340.98 481.66 388.78 514.52 341.81 547.38 210.45 557.01 69.72 543.75 -16.97 528.57 -33.3 490.99 27.73 440.95 127.83 406.12 249.36 385.44 357.5 399.06 437.38 458.31 508.76 557.65 559.1 676 591.96Q676 591.96 676 591.96"
            opacity="0.40"></path>
        <path
            d="M642.05 463.75C736.39 491.92 795.81 491.88 813.28 466.6 796.3 441.93 746.59 398.76 681 354.88 603.38 339.85 528.26 359.24 466.11 429.08 404.33 540.8 357.37 674.3 329.2 783.79 301.03 830.62 294.33 796 307.3 704.27 320.63 581.87 351.8 464.17 392.5 374.95 421.18 311.5 441 276.84 437.35 256.97 399.22 247.79 328.39 233.71 234.05 205.55 131.98 177.38 52.25 137.79 8.47 98.16 -4.17 69.22 19.74 59.92 66.79 86.45 130.46 138.75 198.51 226.57 258.23 328.31 319.67 399.4 367.35 422.62 395.51 375.82 423.69 266.33 429.68 144.24 417.06 53.15 406.15 3.95 382.06 14.43 355.3 66.38 345.16 147.17 351.11 234.3 384.39 307.78 448.81 381.88 539.95 435.58 642.01 463.74Q642.05 463.75 642.05 463.75"
            opacity="0.18"></path>
        <path
            d="M608.05 303.57C688.06 327.04 744.12 329.13 771 315.97 775.03 307.84 753.21 295.73 715.32 293.8 665.47 315.9 611.94 366.55 564.23 449.06 514.63 551.41 475.49 661.47 452.02 749.79 428.55 794.19 422.97 780.82 431.89 722.53 438.92 633.66 455.82 534.92 474.9 446.6 482.03 366.1 478.95 305.58 457.72 263.31 413.64 227.82 348.06 200.18 268.05 176.71 182.64 153.24 112.1 136.16 65.7 130.97 38.25 132.57 37.67 156.45 57.29 206.18 90.54 263.74 132.56 337.57 173.6 409.24 217.72 450.32 254.38 454.2 277.85 409.82 301.33 321.5 309.39 220.94 305.95 135.8 302.89 57.6 321.58 110.44 378.97 183.63 442.56 237.46 522.61 280.09 608.01 303.56Q608.05 303.57 608.05 303.57"
            opacity="0.91"></path>
        <path
            d="M573.87 191.64C638.9 210.42 688.41 221.69 718.91 229.6 736.15 242.29 735.18 260.35 720.68 290.62 697.37 334.9 667.65 398.11 637.95 477.45 605.97 562.47 578.49 647.68 559.71 715.74 540.93 755.48 532.63 757.41 532.07 727.67 529.23 673.91 529.65 605.74 528.35 537.04 518.23 465.55 499.28 403.72 468.28 356.44 424.02 311.22 366.9 278.44 301.87 259.66 233.39 240.89 174.46 237.89 130.85 250.57 97.1 265.31 81.21 297.82 80.8 344.7 89.14 388.8 107.12 437.05 129.07 477.04 153.7 493.02 177.32 483.48 196.1 443.74 214.88 375.68 227.03 298.08 234.95 226.83 245.54 161.25 256.87 117.95 273.13 98.29 298.15 92.63 333.96 103.88 381.48 123.73 438.85 148.36 505.39 172.86 573.87 191.64Q573.87 191.64 573.87 191.64"
            opacity="0.11"></path>
        <path
            d="M540.05 184.14C634.39 212.31 685.65 261.05 692.66 340.15 680.27 439.34 648.5 572.3 620.34 681.79 592.17 728.62 572.93 691.37 548.41 617.11 504.48 520.77 430.39 441.15 336.05 412.98 233.97 384.81 163.66 413.43 137.48 472.86 128.05 510.2 145.83 524.62 174 477.79 202.16 368.3 235.39 258.17 281.73 195.9 344.82 153.72 437.97 155.97 540.05 184.14Q540.05 184.14 540.05 184.14"
            opacity="0.11"></path>
        <path
            d="M506.01 284.71C626.68 322.27 654.02 494.08 616.47 647.78 578.91 692.68 490.68 597.29 370.01 559.73 235.85 522.18 180.67 556.68 218.23 511.78 255.78 358.08 371.85 247.16 506.01 284.71Q506.01 284.71 506.01 284.71"
            opacity="0.78"></path>
    </g>
</svg>